<svg width="22" height="22" viewBox="0 0 22 22" fill="none" xmlns="http://www.w3.org/2000/svg">
<path opacity="0.5" fill-rule="evenodd" clip-rule="evenodd" d="M22 11C22 17.0751 17.0751 22 11 22C4.92487 22 0 17.0751 0 11C0 4.92487 4.92487 0 11 0C17.0751 0 22 4.92487 22 11Z" fill="white"/>
<path d="M11.825 4.39995C11.825 3.94432 11.4556 3.57495 11 3.57495C10.5444 3.57495 10.175 3.94432 10.175 4.39995V4.74835C8.38153 5.06949 6.875 6.41692 6.875 8.24995C6.875 10.3589 8.86908 11.825 11 11.825C12.5142 11.825 13.475 12.8212 13.475 13.75C13.475 14.6787 12.5142 15.675 11 15.675C9.48585 15.675 8.525 14.6787 8.525 13.75C8.525 13.2943 8.15563 12.925 7.7 12.925C7.24437 12.925 6.875 13.2943 6.875 13.75C6.875 15.583 8.38153 16.9304 10.175 17.2516V17.6C10.175 18.0556 10.5444 18.425 11 18.425C11.4556 18.425 11.825 18.0556 11.825 17.6V17.2516C13.6184 16.9304 15.125 15.583 15.125 13.75C15.125 11.641 13.1309 10.175 11 10.175C9.48585 10.175 8.525 9.17868 8.525 8.24995C8.525 7.32125 9.48585 6.32495 11 6.32495C12.5142 6.32495 13.475 7.32125 13.475 8.24995C13.475 8.70558 13.8444 9.07495 14.3 9.07495C14.7556 9.07495 15.125 8.70558 15.125 8.24995C15.125 6.41692 13.6184 5.06949 11.825 4.74835V4.39995Z" fill="#191919"/>
</svg>
