<svg width="21" height="21" viewBox="0 0 21 21" fill="none" xmlns="http://www.w3.org/2000/svg">
<path d="M12.6 8.3999V20.9999H2.1C1.54305 20.9999 1.0089 20.7787 0.615076 20.3848C0.221249 19.991 0 19.4569 0 18.8999V8.3999H12.6Z" fill="#8C8C8C"/>
<path d="M21 8.3999V18.8999C21 19.4569 20.7787 19.991 20.3849 20.3848C19.991 20.7787 19.4569 20.9999 18.9 20.9999H14.7V8.3999H21Z" fill="#8C8C8C"/>
<path d="M21 2.1V6.3H0V2.1C0 1.54305 0.221249 1.0089 0.615076 0.615076C1.0089 0.221249 1.54305 0 2.1 0H18.9C19.457 0 19.9911 0.221249 20.3849 0.615076C20.7787 1.0089 21 1.54305 21 2.1Z" fill="#8C8C8C"/>
</svg>
