<svg preserveAspectRatio="none" width="100%" height="100%" overflow="visible" style="display: block;" viewBox="0 0 96 93" fill="none" xmlns="http://www.w3.org/2000/svg">
<g id="Group 29">
<g id="Vector">
<path d="M80.1205 40.3196C84.7013 37.1929 87.948 32.6207 89.4883 27.4995C89.9607 28.1467 90.4089 28.8184 90.8309 29.516C93.7085 34.2702 95.254 40.0086 95.254 46.8531C95.254 57.3591 91.2872 64.7089 87.2498 69.4187C85.2476 71.7553 83.241 73.4294 81.7179 74.5296C81.4522 74.7211 81.2007 74.8959 80.9659 75.0545V83.764C80.9659 88.3671 77.2343 92.0987 72.6312 92.0987H66.6778C62.7324 92.0987 59.5338 88.9001 59.5338 84.9547H50.0084C50.0084 88.9001 46.8097 92.0987 42.8643 92.0987H36.9109C32.3078 92.0987 28.5762 88.3671 28.5762 83.764V80.5125C27.9187 80.291 27.1726 80.0158 26.365 79.6781C23.5261 78.4898 19.8107 76.478 16.525 73.1922C12.7909 69.4583 10.2899 65.5619 8.88291 63.0429C8.46765 62.2995 7.84741 61.9027 7.31651 61.8141C3.09447 61.1107 0 57.4577 0 53.1775V44.8289C0 40.8154 2.90172 37.3901 6.86072 36.73C7.27464 36.6609 7.88465 36.2499 8.17522 35.3797C9.09133 32.6352 10.8689 28.551 14.1436 25.2762C16.8223 22.5976 19.7884 20.6299 22.0413 19.3426C22.6908 18.9715 23.2888 18.6525 23.8135 18.3854V4.80371C23.8135 0.336775 29.1983 -1.49677 32.0999 1.39257C33.6738 2.95974 35.9587 5.0498 38.4879 6.79519C41.0121 8.53724 43.4249 9.68519 45.4133 9.93828C43.1058 14.5221 42.2828 19.8277 43.2706 25.0595C44.1321 29.6204 47.6222 32.5022 50.9009 33.86L68.5024 41.1488C71.781 42.5066 76.2865 42.9362 80.1205 40.3196ZM28.5762 39.7085C31.2065 39.7085 33.3389 37.5763 33.3389 34.9458C33.3389 32.3156 31.2065 30.1833 28.5762 30.1833C25.9459 30.1833 23.8135 32.3156 23.8135 34.9458C23.8135 37.5763 25.9459 39.7085 28.5762 39.7085Z" fill="var(--fill-0, white)" style="mix-blend-mode:overlay"/>
</g>
<g id="Vector_2">
<path d="M77.4358 36.3868C81.9709 33.2914 84.8709 28.4216 85.5696 23.142C85.5696 23.142 85.5696 23.1419 85.5696 23.142C85.9944 19.9331 85.6057 16.5726 84.2779 13.3672C80.2506 3.64697 69.1063 -0.968137 59.3857 3.05911C50.9066 6.57217 46.312 15.5014 47.9504 24.1765C48.068 24.7972 48.279 25.3774 48.5662 25.9137C48.8039 26.3578 49.0935 26.7718 49.4254 27.1537C50.296 28.1552 51.4558 28.936 52.7231 29.4609L70.3246 36.7497C72.6588 37.7166 75.3488 37.8109 77.4358 36.3868Z" fill="var(--fill-0, white)" style="mix-blend-mode:overlay"/>
</g>
</g>
</svg>
