<svg preserveAspectRatio="none" width="100%" height="100%" overflow="visible" style="display: block;" viewBox="0 0 149 124" fill="none" xmlns="http://www.w3.org/2000/svg">
<g id="Group">
<g id="Vector">
<path d="M24.441 101.775L19.9868 104.432C19.8703 104.499 19.1498 104.47 18.0123 103.742C16.5222 102.788 14.9779 101.092 13.7784 99.0805L4.81547 84.065C4.08466 82.8339 2.49109 82.4348 1.26305 83.1683C0.0350104 83.9018 -0.366839 85.49 0.366407 86.7205L9.32929 101.737C10.9513 104.452 13.0424 106.714 15.2188 108.105C16.8151 109.129 18.3854 109.642 19.8259 109.642C20.839 109.642 21.7899 109.388 22.645 108.878L27.0965 106.222C28.3249 105.488 28.7264 103.9 27.9932 102.669C27.2627 101.441 25.6718 101.042 24.441 101.775Z" fill="var(--fill-0, white)" style="mix-blend-mode:overlay"/>
</g>
<g id="Vector_2">
<path d="M101.976 107.829C100.544 107.829 99.3854 108.987 99.3854 110.42V115.602C99.3854 116.248 96.6286 118.193 91.6118 118.193H74.1215C72.6886 118.193 71.5305 119.352 71.5305 120.784C71.5305 122.218 72.6889 123.375 74.1215 123.375H91.6118C98.9993 123.375 104.567 120.033 104.567 115.602V110.42C104.567 108.99 103.409 107.829 101.976 107.829Z" fill="var(--fill-0, white)" style="mix-blend-mode:overlay"/>
</g>
<g id="Vector_3">
<path d="M101.502 62.9031L89.7724 58.353L117.14 44.3115C120.734 41.9666 121.543 37.2893 118.949 33.8719L111.284 24.8754C110.222 22.7507 108.048 21.2761 105.509 21.2761H43.3211C39.7426 21.2761 36.8432 24.1757 36.8432 27.7539C36.8432 31.3323 39.7429 34.2317 43.3211 34.2317H86.5907L57.7042 48.3227C57.66 48.3436 57.6137 48.3693 57.5668 48.3875L57.3622 48.4886L57.3752 48.4964C57.3413 48.5119 57.3132 48.5354 57.282 48.5506C57.0747 48.6571 56.8726 48.7685 56.6756 48.8928C56.4555 49.0329 56.2455 49.1806 56.0382 49.3437C55.8464 49.4941 55.6651 49.6442 55.4863 49.8125C55.2971 49.9914 55.1183 50.1829 54.9473 50.3799C54.7866 50.5664 54.6311 50.7582 54.4834 50.9655C54.3306 51.1806 54.1959 51.4088 54.0637 51.6418C53.9886 51.7741 53.8951 51.8854 53.8252 52.0201L46.5673 66.7509L17.8523 79.852C13.9449 81.635 12.2242 86.2469 14.0072 90.1521C15.313 93.0128 18.1349 94.702 21.0836 94.702C22.1615 94.702 23.26 94.4739 24.3044 93.9997L55.5407 79.7482C57.1731 79.0047 58.4946 77.7198 59.2874 76.1129L64.6253 65.2819L89.1557 74.7965L80.605 102.986C79.3612 107.095 81.6804 111.435 85.7873 112.681C86.5411 112.91 87.3004 113.019 88.0466 113.019C91.3817 113.019 94.4651 110.855 95.4834 107.499L106.125 72.4128C107.309 68.5157 105.293 64.375 101.502 62.9031Z" fill="var(--fill-0, white)" style="mix-blend-mode:overlay"/>
</g>
<g id="Vector_4">
<path d="M114.289 15.2457C114.289 22.1435 119.899 27.7559 126.802 27.7559C133.702 27.7559 139.294 22.1435 139.294 15.2457C139.294 8.34302 133.702 2.74856 126.802 2.74856C119.899 2.74856 114.289 8.34302 114.289 15.2457Z" fill="var(--fill-0, white)" style="mix-blend-mode:overlay"/>
</g>
<g id="Vector_5">
<path d="M97.785 2.59062C97.785 1.15773 96.6269 -0.000398368 95.194 -0.000398368H55.6786C54.2457 -0.000398368 53.0876 1.15773 53.0876 2.59062C53.0876 4.02351 54.2457 5.18164 55.6786 5.18164H95.1937C96.6242 5.18164 97.785 4.02351 97.785 2.59062Z" fill="var(--fill-0, white)" style="mix-blend-mode:overlay"/>
</g>
<g id="Vector_6">
<path d="M39.4843 9.09325C38.0514 9.09325 36.8932 10.2514 36.8932 11.6843C36.8932 13.1172 38.0514 14.2753 39.4843 14.2753H78.9993C80.4322 14.2753 81.5903 13.1172 81.5903 11.6843C81.5903 10.2514 80.4322 9.09325 78.9993 9.09325H39.4843Z" fill="var(--fill-0, white)" style="mix-blend-mode:overlay"/>
</g>
<g id="Vector_7">
<path d="M146.409 49.8529H121.604C120.171 49.8529 119.013 51.011 119.013 52.4439C119.013 53.8768 120.171 55.0349 121.604 55.0349H146.409C147.842 55.0349 149 53.8768 149 52.4439C149 51.0135 147.842 49.8529 146.409 49.8529Z" fill="var(--fill-0, white)" style="mix-blend-mode:overlay"/>
</g>
<g id="Vector_8">
<path d="M136.246 58.9465H111.441C110.008 58.9465 108.85 60.1047 108.85 61.5376C108.85 62.9707 110.008 64.1286 111.441 64.1286H136.246C137.679 64.1286 138.837 62.9707 138.837 61.5376C138.837 60.1047 137.679 58.9465 136.246 58.9465Z" fill="var(--fill-0, white)" style="mix-blend-mode:overlay"/>
</g>
</g>
</svg>
