<svg preserveAspectRatio="none" width="100%" height="100%" overflow="visible" style="display: block;" viewBox="0 0 50 50" fill="none" xmlns="http://www.w3.org/2000/svg">
<g id="Group 58">
<path id="Vector" opacity="0.4" d="M50 14.525V35.475C50 42.5 46.775 47.325 41.1 49.15C39.45 49.725 37.55 50 35.475 50H14.525C12.45 50 10.55 49.725 8.9 49.15C3.225 47.325 0 42.5 0 35.475V14.525C0 5.425 5.425 0 14.525 0H35.475C44.575 0 50 5.425 50 14.525Z" fill="var(--fill-0, #2EF68D)"/>
<path id="Vector_2" d="M41.1025 49.1498C39.4525 49.7248 37.5525 49.9998 35.4775 49.9998H14.5273C12.4523 49.9998 10.5523 49.7248 8.90234 49.1498C9.77734 42.5498 16.6773 37.4248 25.0022 37.4248C33.3272 37.4248 40.2275 42.5498 41.1025 49.1498Z" fill="var(--fill-0, #2EF68D)"/>
<path id="Vector_3" d="M33.9488 23.95C33.9488 28.9 29.9488 32.925 24.9988 32.925C20.0488 32.925 16.0488 28.9 16.0488 23.95C16.0488 19 20.0488 15 24.9988 15C29.9488 15 33.9488 19 33.9488 23.95Z" fill="var(--fill-0, #2EF68D)"/>
</g>
</svg>
