<svg preserveAspectRatio="none" width="100%" height="100%" overflow="visible" style="display: block;" viewBox="0 0 127 91" fill="none" xmlns="http://www.w3.org/2000/svg">
<g id="Group 59">
<path id="Line 39" d="M0.591975 88.3887C0.492385 88.6819 0.594331 88.9816 0.819676 89.0582L4.4919 90.3056C4.71725 90.3822 4.98066 90.2066 5.08025 89.9134C5.17984 89.6202 5.07789 89.3205 4.85255 89.2439L1.58835 88.1351L3.03094 83.8884C3.13053 83.5952 3.02858 83.2955 2.80324 83.219C2.57789 83.1424 2.31448 83.318 2.21489 83.6112L0.591975 88.3887ZM1 88.5273L1.16101 89.0007L64.161 47.0007L64 46.5273L63.839 46.054L0.838991 88.054L1 88.5273Z" fill="var(--stroke-0, white)"/>
<path id="Line 40" d="M126.728 88.3887C126.828 88.6819 126.726 88.9816 126.501 89.0582L122.828 90.3056C122.603 90.3822 122.34 90.2066 122.24 89.9134C122.14 89.6202 122.242 89.3205 122.468 89.2439L125.732 88.1351L124.289 83.8884C124.19 83.5952 124.292 83.2955 124.517 83.219C124.742 83.1424 125.006 83.318 125.105 83.6112L126.728 88.3887ZM126.32 88.5273L126.159 89.0007L63.1593 47.0007L63.3203 46.5273L63.4813 46.054L126.481 88.054L126.32 88.5273Z" fill="var(--stroke-0, white)"/>
<line id="Line 41" x1="63.6602" y1="47" x2="63.6602" y2="2.18556e-08" stroke="var(--stroke-0, white)"/>
</g>
</svg>
