<svg preserveAspectRatio="none" width="100%" height="100%" overflow="visible" style="display: block;" viewBox="0 0 19 19" fill="none" xmlns="http://www.w3.org/2000/svg">
<g id="icons">
<path id="linkedin-[#161]" fill-rule="evenodd" clip-rule="evenodd" d="M18.75 18.75H15V12.1884C15 10.3884 14.2059 9.38418 12.7819 9.38418C11.2322 9.38418 10.3125 10.4306 10.3125 12.1884V18.75H6.56248V6.56252H10.3125V7.93306C10.3125 7.93306 11.489 5.86854 14.1403 5.86854C16.7925 5.86854 18.75 7.48699 18.75 10.8358V18.75ZM2.28934 4.61335C1.02465 4.61335 -3.86594e-05 3.58028 -3.86594e-05 2.30622C-3.86594e-05 1.03309 1.02465 0 2.28934 0C3.5531 0 4.57778 1.03309 4.57778 2.30622C4.57872 3.58028 3.5531 4.61335 2.28934 4.61335ZM-3.86594e-05 18.75H4.68747V6.56252H-3.86594e-05V18.75Z" fill="var(--fill-0, white)"/>
</g>
</svg>
