<svg preserveAspectRatio="none" width="100%" height="100%" overflow="visible" style="display: block;" viewBox="0 0 19 19" fill="none" xmlns="http://www.w3.org/2000/svg">
<g id="icons">
<path id="github-[#142]" fill-rule="evenodd" clip-rule="evenodd" d="M9.37502 0C14.5528 0 18.75 4.30307 18.75 9.61214C18.75 13.8581 16.0669 17.46 12.3441 18.7322C11.8688 18.8269 11.7 18.5267 11.7 18.2708C11.7 17.9539 11.7113 16.9189 11.7113 15.6327C11.7113 14.7364 11.4113 14.1515 11.0747 13.8533C13.1625 13.6152 15.3563 12.8023 15.3563 9.11043C15.3563 8.06043 14.9925 7.2036 14.3907 6.53047C14.4882 6.28766 14.8097 5.30997 14.2988 3.98622C14.2988 3.98622 13.5132 3.72866 11.7235 4.97178C10.9744 4.75897 10.1719 4.65189 9.37502 4.64814C8.57815 4.65189 7.77658 4.75897 7.02846 4.97178C5.23689 3.72866 4.44939 3.98622 4.44939 3.98622C3.94032 5.30997 4.26189 6.28766 4.35845 6.53047C3.75939 7.2036 3.39282 8.06043 3.39282 9.11043C3.39282 12.7929 5.58189 13.6183 7.66408 13.8611C7.39596 14.1011 7.15314 14.5245 7.06877 15.1461C6.53439 15.3917 5.17688 15.8168 4.34063 14.3477C4.34063 14.3477 3.8447 13.4242 2.90344 13.3567C2.90344 13.3567 1.98938 13.3445 2.83969 13.9408C2.83969 13.9408 3.45376 14.2361 3.88032 15.347C3.88032 15.347 4.43064 17.0626 7.03877 16.4814C7.04346 17.2848 7.0519 18.042 7.0519 18.2708C7.0519 18.5248 6.87939 18.8222 6.41158 18.7331C2.68594 17.4628 0 13.859 0 9.61214C0 4.30307 4.19814 0 9.37502 0Z" fill="var(--fill-0, white)"/>
</g>
</svg>
